{
  "accessors": [
    {
      "bufferView": 2,
      "componentType": 5126,
      "count": 40,
      "max": [
        1.0,
        1.0,
        0.08600114285945892
      ],
      "min": [
        -1.0,
        -1.0,
        -1.0
      ],
      "type": "VEC3"
    },
    {
      "bufferView": 2,
      "byteOffset": 480,
      "componentType": 5126,
      "count": 40,
      "max": [
        1.0,
        1.0,
        1.0
      ],
      "min": [
        -1.0,
        -1.0,
        -1.0
      ],
      "type": "VEC3"
    },
    {
      "bufferView": 1,
      "componentType": 5126,
      "count": 40,
      "max": [
        0.875,
        1.0
      ],
      "min": [
        0.125,
        0.0
      ],
      "type": "VEC2"
    },
    {
      "bufferView": 0,
      "componentType": 5125,
      "count": 60,
      "type": "SCALAR"
    },
    {
      "bufferView": 2,
      "byteOffset": 960,
      "componentType": 5126,
      "count": 192,
      "max": [
        1.0,
        1.0,
        4.522089004516602
      ],
      "min": [
        -1.0,
        -1.0,
        -1.0
      ],
      "type": "VEC3"
    },
    {
      "bufferView": 2,
      "byteOffset": 3264,
      "componentType": 5126,
      "count": 192,
      "max": [
        0.9951847791671753,
        0.9951847791671753,
        1.0
      ],
      "min": [
        -0.9951847791671753,
        -0.9951847791671753,
        -1.0
      ],
      "type": "VEC3"
    },
    {
      "bufferView": 1,
      "byteOffset": 320,
      "componentType": 5126,
      "count": 192,
      "max": [
        1.0,
        1.0
      ],
      "min": [
        0.0,
        0.01000000536441803
      ],
      "type": "VEC2"
    },
    {
      "bufferView": 0,
      "byteOffset": 240,
      "componentType": 5125,
      "count": 372,
      "type": "SCALAR"
    },
    {
      "bufferView": 2,
      "byteOffset": 5568,
      "componentType": 5126,
      "count": 60,
      "max": [
        2.9104490280151367,
        1.0,
        1.891207218170166
      ],
      "min": [
        -2.9138078689575195,
        -1.0,
        -1.0
      ],
      "type": "VEC3"
    },
    {
      "bufferView": 2,
      "byteOffset": 6288,
      "componentType": 5126,
      "count": 60,
      "max": [
        1.0,
        1.0,
        0.9855614900588989
      ],
      "min": [
        -0.9999986886978149,
        -1.0,
        -0.9856025576591492
      ],
      "type": "VEC3"
    },
    {
      "bufferView": 1,
      "byteOffset": 1856,
      "componentType": 5126,
      "count": 60,
      "max": [
        0.875,
        1.0
      ],
      "min": [
        0.125,
        0.0
      ],
      "type": "VEC2"
    },
    {
      "bufferView": 0,
      "byteOffset": 1728,
      "componentType": 5125,
      "count": 108,
      "type": "SCALAR"
    },
    {
      "bufferView": 2,
      "byteOffset": 7008,
      "componentType": 5126,
      "count": 248,
      "max": [
        1.0833333730697632,
        1.0,
        28.938579559326172
      ],
      "min": [
        -1.0833333730697632,
        -1.0,
        1.1046726703643799
      ],
      "type": "VEC3"
    },
    {
      "bufferView": 2,
      "byteOffset": 9984,
      "componentType": 5126,
      "count": 248,
      "max": [
        0.6957285404205322,
        0.7348034977912903,
        0.3142206072807312
      ],
      "min": [
        -0.6987851858139038,
        -0.7348034977912903,
        -1.0
      ],
      "type": "VEC3"
    },
    {
      "bufferView": 1,
      "byteOffset": 2336,
      "componentType": 5126,
      "count": 248,
      "max": [
        0.625,
        1.0
      ],
      "min": [
        0.125,
        0.25
      ],
      "type": "VEC2"
    },
    {
      "bufferView": 0,
      "byteOffset": 2160,
      "componentType": 5125,
      "count": 402,
      "type": "SCALAR"
    }
  ],
  "asset": {
    "extras": {
      "author": "eggandbacon (https://sketchfab.com/eggandbacon)",
      "license": "CC-BY-4.0 (http://creativecommons.org/licenses/by/4.0/)",
      "source": "https://sketchfab.com/3d-models/low-poly-sword-a3da3ed4bc5b488dab484191d5d0e5a6",
      "title": "Low poly sword"
    },
    "generator": "Sketchfab-13.6.0",
    "version": "2.0"
  },
  "bufferViews": [
    {
      "buffer": 0,
      "byteLength": 3768,
      "name": "floatBufferViews",
      "target": 34963
    },
    {
      "buffer": 0,
      "byteLength": 4320,
      "byteOffset": 3768,
      "byteStride": 8,
      "name": "floatBufferViews",
      "target": 34962
    },
    {
      "buffer": 0,
      "byteLength": 12960,
      "byteOffset": 8088,
      "byteStride": 12,
      "name": "floatBufferViews",
      "target": 34962
    }
  ],
  "buffers": [
    {
      "byteLength": 21048,
      "uri": "scene.bin"
    }
  ],
  "materials": [
    {
      "doubleSided": true,
      "name": "Material",
      "pbrMetallicRoughness": {
        "baseColorFactor": [
          0.0,
          0.0,
          0.0,
          1.0
        ],
        "metallicFactor": 0.0
      }
    },
    {
      "doubleSided": true,
      "name": "Material.002",
      "pbrMetallicRoughness": {
        "baseColorFactor": [
          0.106383,
          0.10745,
          0.110689,
          1.0
        ],
        "metallicFactor": 0.0,
        "roughnessFactor": 0.9759718817403417
      }
    },
    {
      "doubleSided": true,
      "name": "Material.001",
      "pbrMetallicRoughness": {
        "baseColorFactor": [
          0.0,
          0.0,
          0.0,
          1.0
        ],
        "metallicFactor": 0.0
      }
    },
    {
      "doubleSided": true,
      "name": "Material.003",
      "pbrMetallicRoughness": {
        "baseColorFactor": [
          0.165132,
          0.191202,
          0.208637,
          1.0
        ],
        "metallicFactor": 0.0,
        "roughnessFactor": 0.9582037919059602
      }
    }
  ],
  "meshes": [
    {
      "name": "Pommel_Material_0",
      "primitives": [
        {
          "attributes": {
            "NORMAL": 1,
            "POSITION": 0,
            "TEXCOORD_0": 2
          },
          "indices": 3,
          "material": 0,
          "mode": 4
        }
      ]
    },
    {
      "name": "Handle_Material.002_0",
      "primitives": [
        {
          "attributes": {
            "NORMAL": 5,
            "POSITION": 4,
            "TEXCOORD_0": 6
          },
          "indices": 7,
          "material": 1,
          "mode": 4
        }
      ]
    },
    {
      "name": "Hilt_Material.001_0",
      "primitives": [
        {
          "attributes": {
            "NORMAL": 9,
            "POSITION": 8,
            "TEXCOORD_0": 10
          },
          "indices": 11,
          "material": 2,
          "mode": 4
        }
      ]
    },
    {
      "name": "Blade_Material.003_0",
      "primitives": [
        {
          "attributes": {
            "NORMAL": 13,
            "POSITION": 12,
            "TEXCOORD_0": 14
          },
          "indices": 15,
          "material": 3,
          "mode": 4
        }
      ]
    }
  ],
  "nodes": [
    {
      "children": [
        1
      ],
      "matrix": [
        0.05882352963089943,
        0.0,
        0.0,
        0.0,
        0.0,
        1.3061447397188937e-17,
        -0.05882352963089943,
        0.0,
        0.0,
        0.05882352963089943,
        1.3061447397188937e-17,
        0.0,
        0.0,
        0.0,
        0.0,
        1.0
      ],
      "name": "Sketchfab_model"
    },
    {
      "children": [
        2
      ],
      "matrix": [
        0.009999999776482582,
        0.0,
        0.0,
        0.0,
        0.0,
        0.0,
        0.009999999776482582,
        0.0,
        0.0,
        -0.009999999776482582,
        0.0,
        0.0,
        0.0,
        0.0,
        0.0,
        1.0
      ],
      "name": "17aabb3a48ce49ae906b4a4f021a21e0.fbx"
    },
    {
      "children": [
        3,
        5,
        7,
        9
      ],
      "name": "RootNode"
    },
    {
      "children": [
        4
      ],
      "matrix": [
        100.0,
        0.0,
        0.0,
        0.0,
        0.0,
        -1.629206793918314e-05,
        -99.99999999999868,
        0.0,
        0.0,
        99.99999999999868,
        -1.629206793918314e-05,
        0.0,
        0.0,
        0.0,
        0.0,
        1.0
      ],
      "name": "Pommel"
    },
    {
      "mesh": 0,
      "name": "Pommel_Material_0"
    },
    {
      "children": [
        6
      ],
      "matrix": [
        53.107730865478516,
        0.0,
        0.0,
        0.0,
        0.0,
        -6.330501067258078e-06,
        -38.85633850097605,
        0.0,
        0.0,
        99.99999999999868,
        -1.629206793918314e-05,
        0.0,
        0.0,
        105.70479583740234,
        0.0,
        1.0
      ],
      "name": "Handle"
    },
    {
      "mesh": 1,
      "name": "Handle_Material.002_0"
    },
    {
      "children": [
        8
      ],
      "matrix": [
        131.10000610351563,
        0.0,
        0.0,
        0.0,
        0.0,
        -1.3033654351346513e-05,
        -79.99999999999895,
        0.0,
        0.0,
        99.99999999999868,
        -1.629206793918314e-05,
        0.0,
        0.0,
        646.5111083984375,
        0.0,
        1.0
      ],
      "name": "Hilt"
    },
    {
      "mesh": 2,
      "name": "Hilt_Material.001_0"
    },
    {
      "children": [
        10
      ],
      "matrix": [
        121.08895874023438,
        0.0,
        0.0,
        0.0,
        0.0,
        -7.493398503147644e-06,
        -45.994152069091186,
        0.0,
        0.0,
        100.9074554443346,
        -1.643991119669217e-05,
        0.0,
        0.1269802451133728,
        639.3297729492188,
        0.3427237272262573,
        1.0
      ],
      "name": "Blade"
    },
    {
      "mesh": 3,
      "name": "Blade_Material.003_0"
    }
  ],
  "scene": 0,
  "scenes": [
    {
      "name": "Sketchfab_Scene",
      "nodes": [
        0
      ]
    }
  ]
}
